<mxfile host="65bd71144e">
    <diagram id="SfE3HehVJhVTJ8uhsLOO" name="Page-1">
        <mxGraphModel dx="3310" dy="1995" grid="1" gridSize="10" guides="1" tooltips="1" connect="1" arrows="1" fold="1" page="1" pageScale="1" pageWidth="1654" pageHeight="1169" math="0" shadow="0">
            <root>
                <mxCell id="0"/>
                <mxCell id="1" parent="0"/>
                <mxCell id="53" value="" style="edgeStyle=none;html=1;" edge="1" parent="1" source="26" target="52">
                    <mxGeometry relative="1" as="geometry"/>
                </mxCell>
                <mxCell id="26" value="&lt;h2&gt;Variance-bounded sampling method (Access 1 method)&lt;/h2&gt;" style="rounded=0;whiteSpace=wrap;html=1;gradientColor=none;fillColor=default;align=left;verticalAlign=top;" vertex="1" parent="1">
                    <mxGeometry x="313" y="169" width="1000" height="360" as="geometry"/>
                </mxCell>
                <mxCell id="4" value="" style="edgeStyle=none;html=1;" edge="1" parent="1" source="2" target="3">
                    <mxGeometry relative="1" as="geometry"/>
                </mxCell>
                <mxCell id="2" value="Prior Design" style="rounded=0;whiteSpace=wrap;html=1;" vertex="1" parent="1">
                    <mxGeometry x="353" y="259" width="120" height="60" as="geometry"/>
                </mxCell>
                <mxCell id="7" value="" style="edgeStyle=none;html=1;" edge="1" parent="1" source="3" target="6">
                    <mxGeometry relative="1" as="geometry"/>
                </mxCell>
                <mxCell id="3" value="Variance-bounded sampling (Access 1 method)" style="rounded=0;whiteSpace=wrap;html=1;" vertex="1" parent="1">
                    <mxGeometry x="553" y="259" width="120" height="60" as="geometry"/>
                </mxCell>
                <mxCell id="10" value="" style="edgeStyle=none;html=1;" edge="1" parent="1" source="6" target="9">
                    <mxGeometry relative="1" as="geometry"/>
                </mxCell>
                <mxCell id="6" value="Generate parameter set (based on chosen parameter values, x1, x2, x3)" style="rounded=0;whiteSpace=wrap;html=1;" vertex="1" parent="1">
                    <mxGeometry x="753" y="259" width="120" height="60" as="geometry"/>
                </mxCell>
                <mxCell id="12" value="" style="edgeStyle=none;html=1;" edge="1" parent="1" source="9" target="11">
                    <mxGeometry relative="1" as="geometry"/>
                </mxCell>
                <mxCell id="9" value="Execute complete parameter set" style="whiteSpace=wrap;html=1;rounded=0;" vertex="1" parent="1">
                    <mxGeometry x="953" y="259" width="120" height="60" as="geometry"/>
                </mxCell>
                <mxCell id="14" value="" style="edgeStyle=none;html=1;" edge="1" parent="1" source="11" target="13">
                    <mxGeometry relative="1" as="geometry">
                        <Array as="points">
                            <mxPoint x="1213" y="399"/>
                        </Array>
                    </mxGeometry>
                </mxCell>
                <mxCell id="11" value="Evaluate test results" style="whiteSpace=wrap;html=1;rounded=0;" vertex="1" parent="1">
                    <mxGeometry x="1153" y="259" width="120" height="60" as="geometry"/>
                </mxCell>
                <mxCell id="15" style="edgeStyle=none;html=1;entryX=0.5;entryY=1;entryDx=0;entryDy=0;" edge="1" parent="1" source="13" target="9">
                    <mxGeometry relative="1" as="geometry"/>
                </mxCell>
                <mxCell id="13" value="Generate additional test cases/parameter set" style="whiteSpace=wrap;html=1;rounded=0;" vertex="1" parent="1">
                    <mxGeometry x="953" y="369" width="120" height="60" as="geometry"/>
                </mxCell>
                <mxCell id="17" value="Skewed Gaussian (skewed towards reasonable parameter area determined by JRC human driver model)" style="text;html=1;strokeColor=none;fillColor=none;align=left;verticalAlign=middle;whiteSpace=wrap;rounded=0;" vertex="1" parent="1">
                    <mxGeometry x="353" y="329" width="120" height="90" as="geometry"/>
                </mxCell>
                <mxCell id="18" value="Apply method in 3-dimensions (v_delta, s_delta, ego_max_dec)" style="text;html=1;strokeColor=none;fillColor=none;align=left;verticalAlign=middle;whiteSpace=wrap;rounded=0;" vertex="1" parent="1">
                    <mxGeometry x="553" y="329" width="120" height="60" as="geometry"/>
                </mxCell>
                <mxCell id="19" value="Apply method in 3-dimensions (v_delta, s_delta, ego_max_dec)" style="text;html=1;strokeColor=none;fillColor=none;align=left;verticalAlign=middle;whiteSpace=wrap;rounded=0;" vertex="1" parent="1">
                    <mxGeometry x="753" y="329" width="120" height="60" as="geometry"/>
                </mxCell>
                <mxCell id="21" value="Compare with expectation in unreasonable/reasonable area" style="text;html=1;strokeColor=none;fillColor=none;align=left;verticalAlign=middle;whiteSpace=wrap;rounded=0;" vertex="1" parent="1">
                    <mxGeometry x="1153" y="189" width="120" height="60" as="geometry"/>
                </mxCell>
                <mxCell id="22" value="For reasonable area: if fail (expectation is pass) then more fine-grained -&amp;gt; reduced variance!" style="text;html=1;strokeColor=none;fillColor=none;align=left;verticalAlign=middle;whiteSpace=wrap;rounded=0;" vertex="1" parent="1">
                    <mxGeometry x="953" y="439" width="120" height="60" as="geometry"/>
                </mxCell>
                <mxCell id="23" value="Execute until e.g. until variance of failed area &amp;lt; threshold (or until fixed number of total test cases)" style="text;html=1;strokeColor=none;fillColor=none;align=left;verticalAlign=middle;whiteSpace=wrap;rounded=0;" vertex="1" parent="1">
                    <mxGeometry x="1083" y="329" width="120" height="60" as="geometry"/>
                </mxCell>
                <mxCell id="25" value="" style="endArrow=none;dashed=1;html=1;" edge="1" parent="1">
                    <mxGeometry width="50" height="50" relative="1" as="geometry">
                        <mxPoint x="273" y="1049" as="sourcePoint"/>
                        <mxPoint x="273" y="129" as="targetPoint"/>
                    </mxGeometry>
                </mxCell>
                <mxCell id="55" style="edgeStyle=none;html=1;exitX=1;exitY=0.5;exitDx=0;exitDy=0;entryX=0;entryY=0.5;entryDx=0;entryDy=0;" edge="1" parent="1" source="27" target="54">
                    <mxGeometry relative="1" as="geometry"/>
                </mxCell>
                <mxCell id="27" value="&lt;h2&gt;t-way (t=2) testing&lt;/h2&gt;" style="rounded=0;whiteSpace=wrap;html=1;gradientColor=none;fillColor=default;align=left;verticalAlign=top;" vertex="1" parent="1">
                    <mxGeometry x="313" y="569" width="1000" height="200" as="geometry"/>
                </mxCell>
                <mxCell id="31" value="" style="edgeStyle=none;html=1;" edge="1" parent="1" source="28" target="30">
                    <mxGeometry relative="1" as="geometry"/>
                </mxCell>
                <mxCell id="28" value="Decide on parameter discretization" style="rounded=0;whiteSpace=wrap;html=1;" vertex="1" parent="1">
                    <mxGeometry x="353" y="649" width="120" height="60" as="geometry"/>
                </mxCell>
                <mxCell id="29" value="2 different option (coarse and more fine grained)" style="text;html=1;strokeColor=none;fillColor=none;align=left;verticalAlign=middle;whiteSpace=wrap;rounded=0;" vertex="1" parent="1">
                    <mxGeometry x="353" y="719" width="120" height="40" as="geometry"/>
                </mxCell>
                <mxCell id="35" value="" style="edgeStyle=none;html=1;" edge="1" parent="1" source="30" target="34">
                    <mxGeometry relative="1" as="geometry"/>
                </mxCell>
                <mxCell id="30" value="Execute complete parameter set" style="whiteSpace=wrap;html=1;rounded=0;" vertex="1" parent="1">
                    <mxGeometry x="953" y="649" width="120" height="60" as="geometry"/>
                </mxCell>
                <mxCell id="32" value="If parametrization is chosen wisely, evaluation can be done based on GT (look-up)" style="text;html=1;strokeColor=none;fillColor=none;align=left;verticalAlign=middle;whiteSpace=wrap;rounded=0;" vertex="1" parent="1">
                    <mxGeometry x="953" y="719" width="150" height="40" as="geometry"/>
                </mxCell>
                <mxCell id="34" value="Evaluate test results" style="whiteSpace=wrap;html=1;rounded=0;" vertex="1" parent="1">
                    <mxGeometry x="1153" y="649" width="120" height="60" as="geometry"/>
                </mxCell>
                <mxCell id="57" style="edgeStyle=none;html=1;exitX=1;exitY=0.5;exitDx=0;exitDy=0;entryX=0;entryY=0.5;entryDx=0;entryDy=0;" edge="1" parent="1" source="36" target="56">
                    <mxGeometry relative="1" as="geometry"/>
                </mxCell>
                <mxCell id="36" value="&lt;h2&gt;Full combinatorial testing&lt;/h2&gt;" style="rounded=0;whiteSpace=wrap;html=1;gradientColor=none;fillColor=default;align=left;verticalAlign=top;" vertex="1" parent="1">
                    <mxGeometry x="313" y="809" width="1000" height="200" as="geometry"/>
                </mxCell>
                <mxCell id="37" value="2 different option (coarse and more fine grained)" style="text;html=1;strokeColor=none;fillColor=none;align=left;verticalAlign=middle;whiteSpace=wrap;rounded=0;" vertex="1" parent="1">
                    <mxGeometry x="353" y="949" width="120" height="40" as="geometry"/>
                </mxCell>
                <mxCell id="38" value="Decide on parameter discretization" style="rounded=0;whiteSpace=wrap;html=1;" vertex="1" parent="1">
                    <mxGeometry x="353" y="879" width="120" height="60" as="geometry"/>
                </mxCell>
                <mxCell id="39" value="" style="edgeStyle=none;html=1;" edge="1" source="38" target="41" parent="1">
                    <mxGeometry relative="1" as="geometry">
                        <Array as="points">
                            <mxPoint x="873" y="909"/>
                        </Array>
                    </mxGeometry>
                </mxCell>
                <mxCell id="40" value="If parametrization is chosen wisely, evaluation can be done based on GT (look-up)" style="text;html=1;strokeColor=none;fillColor=none;align=left;verticalAlign=middle;whiteSpace=wrap;rounded=0;" vertex="1" parent="1">
                    <mxGeometry x="953" y="949" width="150" height="40" as="geometry"/>
                </mxCell>
                <mxCell id="41" value="Execute complete parameter set" style="whiteSpace=wrap;html=1;rounded=0;" vertex="1" parent="1">
                    <mxGeometry x="953" y="879" width="120" height="60" as="geometry"/>
                </mxCell>
                <mxCell id="42" value="" style="edgeStyle=none;html=1;" edge="1" source="41" target="43" parent="1">
                    <mxGeometry relative="1" as="geometry"/>
                </mxCell>
                <mxCell id="43" value="Evaluate test results" style="whiteSpace=wrap;html=1;rounded=0;" vertex="1" parent="1">
                    <mxGeometry x="1153" y="879" width="120" height="60" as="geometry"/>
                </mxCell>
                <mxCell id="44" value="" style="endArrow=none;dashed=1;html=1;" edge="1" parent="1">
                    <mxGeometry width="50" height="50" relative="1" as="geometry">
                        <mxPoint x="1352.9999999999998" y="1049" as="sourcePoint"/>
                        <mxPoint x="1352.9999999999998" y="129" as="targetPoint"/>
                    </mxGeometry>
                </mxCell>
                <mxCell id="45" value="&lt;h1&gt;Methods&lt;/h1&gt;" style="text;html=1;strokeColor=none;fillColor=none;align=center;verticalAlign=middle;whiteSpace=wrap;rounded=0;" vertex="1" parent="1">
                    <mxGeometry x="763" y="119" width="60" height="30" as="geometry"/>
                </mxCell>
                <mxCell id="46" value="&lt;h1&gt;Pre-processing&lt;/h1&gt;" style="text;html=1;strokeColor=none;fillColor=none;align=center;verticalAlign=middle;whiteSpace=wrap;rounded=0;" vertex="1" parent="1">
                    <mxGeometry x="59" y="119" width="190" height="30" as="geometry"/>
                </mxCell>
                <mxCell id="47" value="&lt;h1&gt;Post-processing&lt;/h1&gt;" style="text;html=1;strokeColor=none;fillColor=none;align=center;verticalAlign=middle;whiteSpace=wrap;rounded=0;" vertex="1" parent="1">
                    <mxGeometry x="1385" y="119" width="210" height="30" as="geometry"/>
                </mxCell>
                <mxCell id="50" value="Determination unreasonable/reasonable parameter area based on human driver model (JRC)" style="rounded=0;whiteSpace=wrap;html=1;" vertex="1" parent="1">
                    <mxGeometry x="75" y="446" width="160" height="83" as="geometry"/>
                </mxCell>
                <mxCell id="51" value="GT generation using sim_loop" style="rounded=0;whiteSpace=wrap;html=1;" vertex="1" parent="1">
                    <mxGeometry x="75" y="566" width="160" height="83" as="geometry"/>
                </mxCell>
                <mxCell id="52" value="Evaluation: Comparison with GT" style="whiteSpace=wrap;html=1;align=center;verticalAlign=middle;fillColor=none;rounded=0;gradientColor=none;" vertex="1" parent="1">
                    <mxGeometry x="1415" y="319" width="120" height="60" as="geometry"/>
                </mxCell>
                <mxCell id="54" value="Evaluation: Comparison with GT" style="whiteSpace=wrap;html=1;align=center;verticalAlign=middle;fillColor=none;rounded=0;gradientColor=none;" vertex="1" parent="1">
                    <mxGeometry x="1415" y="639" width="120" height="60" as="geometry"/>
                </mxCell>
                <mxCell id="56" value="Evaluation: Comparison with GT" style="whiteSpace=wrap;html=1;align=center;verticalAlign=middle;fillColor=none;rounded=0;gradientColor=none;" vertex="1" parent="1">
                    <mxGeometry x="1415" y="879" width="120" height="60" as="geometry"/>
                </mxCell>
            </root>
        </mxGraphModel>
    </diagram>
</mxfile>